<?xml version="1.0" encoding="UTF-8"?>
<svg width="17px" height="15px" viewBox="0 0 17 15" version="1.1" xmlns="http://www.w3.org/2000/svg" xmlns:xlink="http://www.w3.org/1999/xlink">
    <!-- Generator: Sketch 48.2 (47327) - http://www.bohemiancoding.com/sketch -->
    <title>icon_vip_01</title>
    <desc>Created with Sketch.</desc>
    <defs></defs>
    <g id="元素版块导航-搜索页搜索下拉" stroke="none" stroke-width="1" fill="none" fill-rule="evenodd" transform="translate(-1394.000000, -31.000000)">
        <g id="Group-12" fill="#008AFF" fill-rule="nonzero">
            <g id="Group-27" transform="translate(1394.000000, 26.000000)">
                <g id="Group-21" transform="translate(0.000000, 4.000000)">
                    <g id="icon_vip_01" transform="translate(0.000000, 1.000000)">
                        <path d="M0,4.22592135 L0.0548387005,4.06758259 C0.186751413,3.6465665 0.553041598,3.34904976 0.982208894,3.31433236 C1.41137619,3.27961496 1.81847343,3.5145687 2.01289403,3.90918611 C2.20731463,4.30380353 2.15057597,4.77997609 1.8692436,5.11475551 C1.83615128,5.15264025 1.80305895,5.18955357 1.76618464,5.23520953 C2.55472746,5.73256809 3.33854282,6.22215543 4.12046719,6.71465698 C4.41640712,6.90310924 4.71329255,7.09156151 5.01017797,7.27224255 C5.17847608,7.3742399 5.31084539,7.34412641 5.4025584,7.1751022 C6.30077864,5.49457425 7.19899889,3.81210349 8.1038376,2.11409027 C7.71145718,1.91009555 7.45901002,1.59730364 7.43631813,1.1339442 C7.41878182,0.666222665 7.69336647,0.239048441 8.11894168,0.0719795708 C8.54451689,-0.0950892997 9.02639753,0.0351179038 9.31690768,0.395677577 C9.7641268,0.961034374 9.60339265,1.61964591 8.89143493,2.11700449 C9.12308121,2.55413604 9.35756396,2.99126759 9.59110123,3.42839914 L11.5454394,7.08379027 C11.6967186,7.36646868 11.7912681,7.39269657 12.0588432,7.22755799 C13.0667408,6.59420294 14.0746385,5.95793369 15.0825361,5.32555006 C15.1298109,5.29543654 15.1742492,5.26532305 15.2290879,5.23132391 C15.021079,5.01664376 14.8887097,4.77476429 14.8735818,4.47848624 C14.8392818,3.92739129 15.2133151,3.43773416 15.7424917,3.34097283 C16.2780906,3.23707971 16.8029657,3.56786369 16.9555617,4.10546733 C16.9669077,4.14723767 16.9848721,4.19192223 17,4.23369257 L17,4.60962571 C16.8269744,5.1749825 16.4752503,5.50331688 15.8701335,5.50623109 C15.8483871,5.57034373 15.8266407,5.63445634 15.8086763,5.69856897 L14.0377642,11.9378933 C13.9611791,12.2098862 13.8694661,12.2807987 13.601891,12.2807987 L3.41229144,12.2807987 C3.12675195,12.2807987 3.03882091,12.2128005 2.96129032,11.9378933 C2.48097886,10.2515369 2.00444938,8.5603235 1.52413793,6.87299574 C1.39649611,6.41740752 1.26412682,5.96181931 1.13270301,5.50331688 C0.681701893,5.50331688 0.340378198,5.31875022 0.128587321,4.91853201 C0.0765850946,4.82139166 0.0434927716,4.71162308 0.00378197075,4.6057401 C0,4.47460064 0,4.3512324 0,4.22592135 Z M8.49621801,13.3648849 L13.2567853,13.3648849 C13.6822581,13.3648849 14.0197998,13.6737912 14.0670745,14.0885805 C14.1141059,14.5091802 13.8402272,14.8968735 13.4364294,14.9813003 C13.3774991,14.9949208 13.3171738,15.0011187 13.2567853,14.9997569 L3.73092324,14.9997569 C3.38193772,15.0084678 3.0682337,14.7823061 2.95750834,14.4421714 C2.84783092,14.1070372 2.94994438,13.7272184 3.24021134,13.5348805 C3.39054504,13.4377402 3.5881535,13.369742 3.76401558,13.3697419 C5.34299221,13.3580851 6.92007787,13.3648849 8.49621801,13.3648849 Z" id="Shape"></path>
                    </g>
                </g>
            </g>
        </g>
    </g>
</svg>